<svg xmlns="http://www.w3.org/2000/svg" viewBox="0 0 128 128" id="shut-down"><circle cx="64" cy="64" r="64" fill="#3b5059" data-name="Circle Grid"></circle><circle cx="64" cy="64" r="40" fill="#eeefee"></circle><path fill="#ef5261" d="M64,89.57A24.6,24.6,0,0,1,52.35,43.3a3.21,3.21,0,0,1,3,5.66,18.18,18.18,0,1,0,17.2,0,3.21,3.21,0,0,1,3.05-5.66A24.6,24.6,0,0,1,64,89.57Z"></path><path fill="#ef5261" d="M64,59.69a3.21,3.21,0,0,1-3.21-3.21v-20a3.21,3.21,0,1,1,6.42,0v20A3.21,3.21,0,0,1,64,59.69Z"></path></svg>